<svg xmlns="http://www.w3.org/2000/svg" xml:space="preserve" width="1500" height="1500" data-id="lg_MR3HtKzEG2VFgnqbbs" data-version="1" viewBox="0 0 1500 1500"><path stroke="transparent" d="M0 0h1500v1500H0z"/><g data-padding="20"><g transform="translate(-564.564 -578.725)scale(1.71322)"><rect width="412.166" height="103.96" x="160.511" y="323.602" fill="none" rx="0" ry="0" transform="translate(474.42 400.42)"/><path fill="#cfcfcf" d="M635.804 741.662v-1.66h8.28l13.25 56.67h6.07l13.25-56.67h8.37v1.66l-15.64 62.65-18.03.09Zm52.27 62.74v-64.4h8.09v64.4Zm50.86-15.27q0 5.06-2.34 8.74-2.35 3.68-6.49 5.66-4.14 1.97-9.75 1.97-4.42 0-8.14-1.05-3.73-1.06-6.35-2.53-2.62-1.48-3.91-2.49v-7.91h1.19q2.86 2.48 7.41 4.51 4.55 2.02 9.15 2.02 2.95 0 5.48-.87 2.53-.88 4.05-2.81 1.51-1.93 1.51-4.78 0-3.59-1.84-5.94-1.84-2.34-5.61-4.64l-11.13-6.99q-2.58-1.66-5.29-3.82t-4.51-5.34q-1.79-3.17-1.79-7.77 0-5.25 2.39-8.83 2.39-3.59 6.44-5.43t9.11-1.84q4.51 0 7.91.92t5.8 2.3q2.39 1.38 3.77 2.76v7.91h-1.29q-2.3-2.67-6.53-4.55-4.23-1.89-9.48-1.89-4.32 0-7.13 2.07-2.8 2.07-2.8 5.93 0 3.59 2.48 6.17 2.48 2.57 5.98 4.78l10.3 6.44q3.13 1.93 5.71 4.33 2.57 2.39 4.14 5.52 1.56 3.12 1.56 7.45m4.42 15.27v-64.4h8.09v64.4Zm12.8-32.2q0-11.78 3.77-19.09t9.89-10.76 13.29-3.45q7.18 0 13.3 3.45 6.11 3.45 9.89 10.76 3.77 7.31 3.77 19.09 0 11.68-3.77 19.04-3.78 7.36-9.89 10.81-6.12 3.45-13.3 3.45-7.17 0-13.29-3.45t-9.89-10.81-3.77-19.04m8.37 0q0 8.56 2.44 14.26 2.43 5.7 6.67 8.51 4.23 2.81 9.47 2.81 5.15 0 9.39-2.81 4.23-2.81 6.76-8.51t2.53-14.26q0-8.65-2.58-14.31-2.57-5.65-6.81-8.46-4.23-2.81-9.29-2.81-5.24 0-9.47 2.86-4.24 2.85-6.67 8.51-2.44 5.65-2.44 14.21m84.9 19.87-.36-52.07h8v64.4h-11.13l-22.17-51.8h-1.2l.18 51.8h-7.91v-64.4h11.13l22.27 52.07Zm15.09-52.07h31.83v7.36h-23.73v24.47q3.03-1.29 6.85-2.02 3.82-.74 7.78-.88 3.95-.13 7.17.42v6.9l-.73.55q-2.49-.64-6.21-.64-3.73 0-7.69.64-3.95.64-7.17 2.02v25.58h-8.1Zm35.7 64.4v-64.4h8.09v57.04h21.81v7.36Zm30.92-32.2q0-11.78 3.77-19.09t9.89-10.76 13.3-3.45q7.17 0 13.29 3.45t9.89 10.76 3.77 19.09q0 11.68-3.77 19.04t-9.89 10.81-13.29 3.45q-7.18 0-13.3-3.45t-9.89-10.81-3.77-19.04m8.37 0q0 8.56 2.44 14.26t6.67 8.51 9.48 2.81q5.15 0 9.38-2.81t6.76-8.51 2.53-14.26q0-8.65-2.57-14.31-2.58-5.65-6.81-8.46t-9.29-2.81q-5.25 0-9.48 2.86-4.23 2.85-6.67 8.51-2.44 5.65-2.44 14.21m46.27-30.54v-1.66h8.09l8.47 54.74h1.56l8.01-54.74h10.94l8.1 54.74h1.56l8.38-54.74h8.09v1.66l-10.21 62.74h-13.34l-7.36-52.26h-1.29l-7.45 52.26h-13.25Z"/><path fill="#cdcdcd" d="M522.404 761.124a35.808 35.808 0 1 0 0 71.616 35.808 35.808 0 1 0 0-71.616"/><path fill="#737373" d="M575.244 761.124a35.808 35.808 0 1 0 0 71.616 35.808 35.808 0 1 0 0-71.616"/><path fill="#979797" d="M549.314 718.404a35.808 35.808 0 1 0 0 71.616 35.808 35.808 0 1 0 0-71.616"/></g><path fill="transparent" stroke="transparent" stroke-width="1.776" d="M251.642 648.743H1250v202.514H251.642z"/></g></svg>